<svg width="24" height="24" viewBox="0 0 24 24" fill="none" xmlns="http://www.w3.org/2000/svg">
    <path fill-rule="evenodd" clip-rule="evenodd" d="M17.056 0.333336C21.0098 0.333336 23.6663 3.10767 23.6663 7.23534V16.7647C23.6663 20.8923 21.0098 23.6667 17.0548 23.6667H6.94217C2.98834 23.6667 0.333008 20.8923 0.333008 16.7647V7.23534C0.333008 3.10767 2.98834 0.333336 6.94217 0.333336H17.056ZM17.056 2.08334H6.94217C3.99051 2.08334 2.08301 4.10517 2.08301 7.23534V16.7647C2.08301 19.8948 3.99051 21.9167 6.94217 21.9167H17.0548C20.0077 21.9167 21.9163 19.8948 21.9163 16.7647V7.23534C21.9163 4.10517 20.0077 2.08334 17.056 2.08334ZM9.81859 8.57304L11.9973 10.7517L14.1749 8.57549C14.5168 8.23365 15.0698 8.23365 15.4116 8.57549C15.7534 8.91732 15.7534 9.47032 15.4116 9.81215L13.234 11.9883L15.4139 14.1695C15.7558 14.5114 15.7558 15.0644 15.4139 15.4062C15.2436 15.5777 15.0184 15.6629 14.7956 15.6629C14.5716 15.6629 14.3476 15.5777 14.1773 15.4062L11.9973 13.225L9.82092 15.4028C9.65059 15.5743 9.42659 15.6595 9.20259 15.6595C8.97859 15.6595 8.75459 15.5743 8.58426 15.4028C8.24242 15.061 8.24242 14.508 8.58426 14.1662L10.7607 11.9883L8.58192 9.8097C8.24009 9.46787 8.24009 8.91487 8.58192 8.57304C8.92492 8.2312 9.47792 8.2312 9.81859 8.57304Z" fill="#EA2036"/>
</svg>
