<svg width="24" height="24" viewBox="0 0 24 24" fill="none" xmlns="http://www.w3.org/2000/svg">
    <path fill-rule="evenodd" clip-rule="evenodd" d="M17.056 0.333336C21.0098 0.333336 23.6663 3.10767 23.6663 7.23534V16.7647C23.6663 20.8923 21.0098 23.6667 17.0548 23.6667H6.94217C2.98834 23.6667 0.333008 20.8923 0.333008 16.7647V7.23534C0.333008 3.10767 2.98834 0.333336 6.94217 0.333336H17.056ZM17.056 2.08334H6.94217C3.99051 2.08334 2.08301 4.10517 2.08301 7.23534V16.7647C2.08301 19.8948 3.99051 21.9167 6.94217 21.9167H17.0548C20.0077 21.9167 21.9163 19.8948 21.9163 16.7647V7.23534C21.9163 4.10517 20.0077 2.08334 17.056 2.08334ZM16.7708 8.61317C17.1126 8.955 17.1126 9.508 16.7708 9.84984L11.2338 15.3868C11.0634 15.5583 10.8394 15.6435 10.6154 15.6435C10.3926 15.6435 10.1674 15.5583 9.99709 15.3868L7.22743 12.6183C6.88559 12.2765 6.88559 11.7235 7.22743 11.3817C7.56926 11.0398 8.12226 11.0398 8.46409 11.3817L10.6154 13.5307L15.5341 8.61317C15.8759 8.27134 16.4289 8.27134 16.7708 8.61317Z" fill="#34A853"/>
</svg>
