<svg width="24" height="24" viewBox="0 0 24 24" fill="none" xmlns="http://www.w3.org/2000/svg">
    <path fill-rule="evenodd" clip-rule="evenodd" d="M11.9997 0.333336C18.4327 0.333336 23.6663 5.567 23.6663 12C23.6663 18.433 18.4327 23.6667 11.9997 23.6667C5.56667 23.6667 0.333008 18.433 0.333008 12C0.333008 5.567 5.56667 0.333336 11.9997 0.333336ZM11.9997 2.08334C6.53151 2.08334 2.08301 6.53184 2.08301 12C2.08301 17.4682 6.53151 21.9167 11.9997 21.9167C17.4678 21.9167 21.9163 17.4682 21.9163 12C21.9163 6.53184 17.4678 2.08334 11.9997 2.08334ZM12.0042 15.2619C12.6494 15.2619 13.1709 15.7834 13.1709 16.4286C13.1709 17.0737 12.6494 17.5952 12.0042 17.5952C11.3591 17.5952 10.8317 17.0737 10.8317 16.4286C10.8317 15.7834 11.3486 15.2619 11.9926 15.2619H12.0042ZM11.9928 6.69634C12.4758 6.69634 12.8678 7.08834 12.8678 7.57134V12.7268C12.8678 13.2098 12.4758 13.6018 11.9928 13.6018C11.5098 13.6018 11.1178 13.2098 11.1178 12.7268V7.57134C11.1178 7.08834 11.5098 6.69634 11.9928 6.69634Z" fill="#FFBA00"/>
</svg>
